# Blender 5.0.0
# www.blender.org
mtllib cuphead.mtl
o Puerta-verde
v 0.562552 1.491899 1.100000
v 0.529912 1.599497 1.100000
v 0.476908 1.698660 1.100000
v 0.405577 1.785577 1.100000
v 0.318660 1.856908 1.100000
v 0.219497 1.909912 1.100000
v 0.111898 1.942552 1.100000
v -0.000000 1.953573 1.100000
v -0.111899 1.942552 1.100000
v -0.219497 1.909912 1.100000
v -0.318660 1.856908 1.100000
v -0.405577 1.785577 1.100000
v -0.476908 1.698660 1.100000
v -0.529912 1.599497 1.100000
v -0.562552 1.491899 1.100000
v -0.573573 1.380000 1.100000
v 0.573573 1.380000 1.100000
v 0.529912 1.599497 1.221725
v 0.562552 1.491899 1.221725
v 0.476908 1.698660 1.221725
v 0.405577 1.785577 1.221725
v 0.318660 1.856908 1.221725
v 0.219497 1.909912 1.221725
v 0.111898 1.942552 1.221725
v -0.000000 1.953573 1.221725
v -0.111899 1.942552 1.221725
v -0.219497 1.909912 1.221725
v -0.318660 1.856908 1.221725
v -0.405577 1.785577 1.221725
v -0.476908 1.698660 1.221725
v -0.529912 1.599497 1.221725
v -0.562552 1.491899 1.221725
v -0.573573 1.380000 1.221725
v 0.573573 1.380000 1.221725
v 0.573573 0.002854 1.100000
v -0.573573 0.002855 1.100000
v 0.573573 0.002854 1.221725
v -0.573573 0.002855 1.221725
vn 1.0000 -0.0000 -0.0000
vn 0.6344 0.7730 -0.0000
vn 0.9952 0.0980 -0.0000
vn -0.7730 0.6344 -0.0000
vn 0.4714 0.8819 -0.0000
vn -0.8819 0.4714 -0.0000
vn 0.2903 0.9569 -0.0000
vn -0.9569 0.2903 -0.0000
vn 0.0980 0.9952 -0.0000
vn -0.9952 0.0980 -0.0000
vn -0.0980 0.9952 -0.0000
vn 0.9569 0.2903 -0.0000
vn -0.2903 0.9569 -0.0000
vn 0.8819 0.4714 -0.0000
vn -0.4714 0.8819 -0.0000
vn 0.7730 0.6344 -0.0000
vn -0.0000 -0.0000 1.0000
vn -0.6344 0.7730 -0.0000
vn -1.0000 -0.0000 -0.0000
vn -0.0000 -0.0000 -1.0000
vn -0.0000 -1.0000 -0.0000
vt 0.455153 0.993983
vt 0.502521 0.086304
vt 0.500329 0.993983
vt 0.469678 0.990970
vt 0.459134 0.905547
vt 0.469678 0.905547
vt 0.469678 0.488646
vt 0.459134 0.596218
vt 0.459134 0.488646
vt 0.469678 0.808753
vt 0.480222 0.905547
vt 0.469678 0.905547
vt 0.490766 0.229330
vt 0.480222 0.139213
vt 0.490766 0.139213
vt 0.469678 0.704305
vt 0.480222 0.808753
vt 0.490766 0.329462
vt 0.480222 0.229330
vt 0.469678 0.596218
vt 0.480222 0.704305
vt 0.490766 0.435763
vt 0.480222 0.329462
vt 0.469678 0.488646
vt 0.480222 0.596218
vt 0.490766 0.544145
vt 0.480222 0.435763
vt 0.469678 0.704305
vt 0.480222 0.650446
vt 0.480222 0.544145
vt 0.469678 0.808753
vt 0.459134 0.704305
vt 0.490766 0.750578
vt 0.490766 0.650446
vt 0.459134 0.808753
vt 0.297978 0.778340
vt 0.114410 0.881861
vt 0.073042 0.772362
vt 0.490766 0.840695
vt 0.480222 0.750578
vt 0.454438 0.084536
vt 0.502354 0.964066
vt 0.454438 0.964066
vt 0.948630 0.836967
vt 0.792160 0.995980
vt 0.679976 0.841862
vt 0.520836 -0.001813
vt 0.525994 0.539110
vt 0.520836 0.539110
vt 0.457346 0.086304
vt 0.459134 0.990970
vt 0.480222 0.488646
vt 0.072451 0.724749
vt 0.073026 0.663765
vt 0.067840 0.097843
vt 0.296228 0.102160
vt 0.297110 0.667286
vt 0.296733 0.738033
vt 0.297375 0.820240
vt 0.295670 0.883806
vt 0.268866 0.886111
vt 0.241376 0.886555
vt 0.200904 0.889589
vt 0.177105 0.889090
vt 0.160138 0.888416
vt 0.090837 0.879446
vt 0.074487 0.873622
vt 0.073714 0.825400
vt 0.480222 0.840695
vt 0.502354 0.084536
vt 0.678843 0.784409
vt 0.678461 0.686132
vt 0.679557 0.088787
vt 0.941922 0.088788
vt 0.947404 0.698371
vt 0.947569 0.772171
vt 0.951176 0.929103
vt 0.953635 0.967557
vt 0.932529 0.992649
vt 0.881396 0.995980
vt 0.838742 0.995120
vt 0.834859 0.999375
vt 0.830977 0.995120
vt 0.747057 0.990202
vt 0.679356 0.968780
vt 0.680718 0.925431
vt 0.525994 -0.001813
s 0
usemtl Material
f 34/1/1 35/2/1 17/3/1
f 5/4/2 21/5/2 4/6/2
f 17/7/3 19/8/3 34/9/3
f 13/10/4 29/11/4 12/12/4
f 6/13/5 22/14/5 5/15/5
f 14/16/6 30/17/6 13/10/6
f 7/18/7 23/19/7 6/13/7
f 15/20/8 31/21/8 14/16/8
f 8/22/9 24/23/9 7/18/9
f 16/24/10 32/25/10 15/20/10
f 9/26/11 25/27/11 8/22/11
f 2/28/12 19/8/12 1/20/12
f 9/26/13 27/29/13 26/30/13
f 3/31/14 18/32/14 2/28/14
f 11/33/15 27/29/15 10/34/15
f 4/6/16 20/35/16 3/31/16
f 18/36/17 27/37/17 31/38/17
f 12/39/18 28/40/18 11/33/18
f 36/41/19 33/42/19 16/43/19
f 14/44/20 6/45/20 2/46/20
f 35/47/21 38/48/21 36/49/21
f 34/1/1 37/50/1 35/2/1
f 5/4/2 22/51/2 21/5/2
f 17/7/3 1/20/3 19/8/3
f 13/10/4 30/17/4 29/11/4
f 6/13/5 23/19/5 22/14/5
f 14/16/6 31/21/6 30/17/6
f 7/18/7 24/23/7 23/19/7
f 15/20/8 32/25/8 31/21/8
f 8/22/9 25/27/9 24/23/9
f 16/24/10 33/52/10 32/25/10
f 9/26/11 26/30/11 25/27/11
f 2/28/12 18/32/12 19/8/12
f 9/26/13 10/34/13 27/29/13
f 3/31/14 20/35/14 18/32/14
f 11/33/15 28/40/15 27/29/15
f 4/6/16 21/5/16 20/35/16
f 32/53/17 33/54/17 38/55/17
f 38/55/17 37/56/17 34/57/17
f 34/57/17 19/58/17 18/36/17
f 18/36/17 20/59/17 21/60/17
f 21/60/17 22/61/17 23/62/17
f 23/62/17 24/63/17 25/64/17
f 25/64/17 26/65/17 27/37/17
f 27/37/17 28/66/17 29/67/17
f 29/67/17 30/68/17 31/38/17
f 31/38/17 32/53/17 38/55/17
f 38/55/17 34/57/17 18/36/17
f 18/36/17 21/60/17 23/62/17
f 23/62/17 25/64/17 27/37/17
f 27/37/17 29/67/17 31/38/17
f 31/38/17 38/55/17 18/36/17
f 18/36/17 23/62/17 27/37/17
f 12/39/18 29/69/18 28/40/18
f 36/41/19 38/70/19 33/42/19
f 1/71/20 17/72/20 35/73/20
f 35/73/20 36/74/20 16/75/20
f 16/75/20 15/76/20 14/44/20
f 14/44/20 13/77/20 12/78/20
f 12/78/20 11/79/20 10/80/20
f 10/80/20 9/81/20 8/82/20
f 8/82/20 7/83/20 6/45/20
f 6/45/20 5/84/20 4/85/20
f 4/85/20 3/86/20 2/46/20
f 2/46/20 1/71/20 35/73/20
f 35/73/20 16/75/20 14/44/20
f 14/44/20 12/78/20 10/80/20
f 10/80/20 8/82/20 6/45/20
f 6/45/20 4/85/20 2/46/20
f 2/46/20 35/73/20 14/44/20
f 14/44/20 10/80/20 6/45/20
f 35/47/21 37/87/21 38/48/21
