# Blender 5.0.0
# www.blender.org
mtllib espada.mtl
o Plane
v 2.075749 -0.193319 0.000000
v 2.084393 0.207143 -0.000000
v 2.151535 -0.159611 0.000000
v 2.158583 0.166914 -0.000000
v 2.214632 -0.106293 0.000000
v 2.219378 0.113596 -0.000000
v 2.284160 -0.029689 0.000000
v 2.285697 0.041520 -0.000000
v 2.302838 -0.005772 0.000000
v 2.303245 0.013075 -0.000000
v 2.308060 0.001949 0.000000
v 2.308133 0.005354 0.000000
v 2.075749 -0.193319 0.149997
v 2.084393 0.207143 0.149997
v 2.151535 -0.159611 0.149997
v 2.158583 0.166914 0.149997
v 2.214632 -0.106293 0.149997
v 2.219378 0.113596 0.149997
v 2.284160 -0.029689 0.149997
v 2.285697 0.041520 0.149997
v 2.302838 -0.005772 0.149997
v 2.303245 0.013075 0.149997
v 2.308060 0.001949 0.149997
v 2.308133 0.005354 0.149997
v -2.255645 -0.170924 0.000000
v -2.276695 -0.190446 0.021194
v -2.073281 -0.186041 0.000000
v -2.278728 0.083023 0.021194
v -2.259125 0.111880 0.021194
v -2.257583 0.089746 -0.000000
v -2.081055 0.158208 -0.000000
v -2.278728 0.083023 0.128802
v -2.257583 0.089746 0.149997
v -2.259125 0.111880 0.128802
v -2.276695 -0.190446 0.128803
v -2.255645 -0.170924 0.149997
v -2.073281 -0.186041 0.149997
v -2.081055 0.158208 0.149997
v -1.705034 -0.211260 0.010436
v -1.705058 -0.200824 0.000000
v -1.705949 0.182040 -0.000000
v -1.705973 0.192481 0.010436
v -1.705058 -0.200824 0.149997
v -1.705034 -0.211260 0.139561
v -1.703281 -0.221547 0.149997
v -1.705973 0.192481 0.139561
v -1.705949 0.182040 0.149997
v -2.062365 -0.207459 0.010759
v -2.083200 -0.206486 0.021194
v -2.072967 -0.199950 0.013836
v -2.062226 -0.197024 0.000000
v -2.062042 -0.207462 0.010436
v -2.091293 0.176970 0.021194
v -2.071133 0.181069 0.010758
v -2.081392 0.173143 0.014046
v -2.070810 0.181079 0.010436
v -2.069952 0.170665 -0.000000
v -2.083200 -0.206486 0.128803
v -2.062365 -0.207459 0.139238
v -2.072967 -0.199950 0.136161
v -2.062042 -0.207462 0.139561
v -2.062226 -0.197024 0.149997
v -2.071133 0.181069 0.139238
v -2.091293 0.176970 0.128802
v -2.081392 0.173143 0.135951
v -2.069952 0.170665 0.149997
v -2.070810 0.181079 0.139561
v -1.610565 -0.555963 0.035786
v -1.652408 -0.520000 0.035786
v -1.647080 -0.515289 0.000000
v -1.631081 0.570854 0.035786
v -1.666130 0.532410 -0.000000
v -1.670519 0.536386 0.035786
v -1.305583 -0.519386 0.000000
v -1.295551 0.520852 -0.000000
v -1.610565 -0.555963 0.114211
v -1.652410 -0.519989 0.149997
v -1.631081 0.570854 0.114211
v -1.670519 0.536386 0.114211
v -1.666130 0.532410 0.149997
v -1.295551 0.520852 0.149997
v -1.705058 -0.200824 0.000000
v -1.705034 -0.211260 0.010436
v -1.705973 0.192481 0.010436
v -1.705949 0.182040 -0.000000
v -1.705949 0.182040 0.149997
v -1.705973 0.192481 0.139561
v -1.272615 -0.209621 0.004221
v -1.271556 -0.160582 0.000000
v -1.268394 -0.209600 0.000000
v -1.264753 0.154617 -0.000000
v -1.263971 0.190841 0.004221
v -1.259750 0.190862 -0.000000
v -1.271374 -0.152129 0.149997
v -1.272615 -0.209621 0.145776
v -1.268394 -0.209600 0.149997
v -1.263971 0.190841 0.145776
v -1.264753 0.154617 0.149997
v -1.259750 0.190862 0.149997
v -1.305569 -0.555262 0.037534
v -1.309869 -0.559419 0.040459
v -1.302407 -0.522099 0.004221
v -1.305721 -0.519182 0.000000
v -1.294816 0.556040 0.037534
v -1.299196 0.560373 0.039810
v -1.292012 0.522845 0.004221
v -1.295659 0.520732 -0.000000
v -1.309848 -0.523915 0.149997
v -1.302573 -0.523840 0.149997
v -1.305586 -0.519742 0.149997
v -1.310190 -0.559415 0.114211
v -1.305553 -0.555098 0.118238
v -1.302973 -0.528042 0.145776
v -1.305627 -0.523963 0.149997
v -1.294816 0.556040 0.112463
v -1.299196 0.560373 0.110187
v -1.292012 0.522845 0.145776
v -1.295659 0.520732 0.149997
vn -0.0000 -0.0000 -1.0000
vn -0.0000 -0.0000 1.0000
vn 0.4064 -0.9137 -0.0000
vn 0.8511 0.5250 -0.0000
vn 0.7881 -0.6155 -0.0000
vn 0.6594 0.7518 -0.0000
vn 0.9998 -0.0216 -0.0000
vn 0.6454 -0.7638 -0.0000
vn 0.8449 0.5350 -0.0000
vn 0.8283 -0.5602 -0.0000
vn 0.7359 0.6771 -0.0000
vn 0.7405 -0.6721 -0.0000
vn 0.4767 0.8791 -0.0000
vn -0.6945 0.4718 -0.5432
vn -0.6945 0.4718 0.5432
vn -0.7071 -0.0053 -0.7071
vn -0.7071 -0.0053 0.7071
vn -0.8272 0.5619 -0.0000
vn -1.0000 -0.0074 -0.0000
vn -0.9929 -0.0852 0.0829
vn -0.4411 -0.2723 -0.8552
vn -0.4857 0.2861 -0.8260
vn -0.4411 -0.2723 0.8552
vn -0.4857 0.2861 0.8260
vn -0.0467 -0.9989 -0.0000
vn -0.0221 0.7068 -0.7071
vn -0.0075 -0.7071 -0.7071
vn -0.0075 -0.7071 0.7071
vn -0.1993 0.9799 -0.0000
vn -0.0221 0.7068 0.7071
vn -0.0106 -0.9999 -0.0000
vn -0.0312 0.9995 -0.0000
vn -0.5781 -0.5820 -0.5719
vn -0.0584 -0.7047 -0.7071
vn -0.0826 -0.9966 -0.0000
vn -0.2557 0.6593 -0.7071
vn -0.6043 0.5386 -0.5872
vn -0.3616 0.9323 -0.0000
vn -0.0584 -0.7047 0.7071
vn -0.5781 -0.5820 0.5719
vn -0.6043 0.5386 0.5872
vn -0.2557 0.6593 0.7071
vn -0.6395 -0.7441 -0.1932
vn -0.6494 0.7430 -0.1622
vn -0.6494 0.7430 0.1622
vn -0.6581 0.7530 -0.0000
vn -0.6518 -0.7584 -0.0000
vn -0.9871 0.1122 -0.1145
vn -0.9694 -0.1790 -0.1679
vn -0.9871 0.1122 0.1145
vn -0.9858 -0.1680 -0.0000
vn -0.9947 0.1025 -0.0000
vn -0.0000 1.0000 -0.0000
vn -0.7063 -0.0456 -0.7065
vn -0.7040 0.0972 -0.7035
vn -0.7066 -0.0366 0.7067
vn -0.7040 0.0972 0.7035
vn 0.2418 -0.6991 -0.6729
vn 0.3374 0.6819 -0.6490
vn 0.0074 -0.7130 0.7011
vn 0.3542 0.6772 0.6449
vn 0.6961 -0.7179 0.0031
vn 0.7033 0.7109 -0.0000
vn 0.7395 0.0625 -0.6702
vn 0.7577 -0.0722 -0.6486
vn 0.7196 -0.0663 0.6912
vn 0.7395 0.0625 0.6702
vn 0.0049 -1.0000 -0.0000
vn 0.9955 -0.0949 -0.0000
vn -0.0049 1.0000 -0.0000
vn 0.9965 0.0842 -0.0000
vn 0.6972 0.4711 0.5404
vn -0.0080 -0.6646 -0.7472
vn -0.0115 -0.9999 -0.0000
vn 0.0310 0.7107 -0.7028
vn 0.5961 -0.5414 0.5929
vn 0.0316 0.9995 -0.0000
vn -0.0287 0.7098 -0.7039
vn -0.0081 -0.7100 0.7042
vn 0.5961 -0.5414 -0.5930
vn 0.0310 0.7107 0.7028
vn -0.0313 0.9995 -0.0000
vn -0.5778 -0.5816 -0.5726
vn -0.5781 -0.5819 -0.5719
vn -0.5781 -0.5819 0.5719
vn -0.5778 -0.5816 0.5726
vn -0.6042 0.5386 0.5873
vn -0.6519 -0.7583 0.0001
vn -0.9848 0.1113 -0.1332
vn -0.9680 -0.1785 -0.1762
vn -0.9848 0.1113 0.1332
vn 0.2194 -0.7029 -0.6766
vn 0.3542 0.6772 -0.6449
vn 0.0499 -0.7093 0.7032
vn 0.3374 0.6819 0.6490
vn 0.6808 -0.7325 0.0014
vn 0.7383 0.0623 -0.6716
vn 0.7596 -0.0724 -0.6464
vn 0.8088 -0.0771 0.5830
vn 0.7383 0.0623 0.6716
vn 0.0028 -0.7110 -0.7032
vn 0.0209 0.6709 -0.7412
vn -0.9957 0.0930 -0.0000
vn -0.0082 -0.7099 0.7043
vn 0.0209 0.6709 0.7412
vt 0.429326 0.966174
vt 0.350248 0.950700
vt 0.437577 0.949726
vt 0.370177 0.980332
vt 0.358120 0.966968
vt 0.418129 0.979797
vt 0.387354 0.994932
vt 0.396806 0.998784
vt 0.402883 0.994758
vt 0.394414 0.999912
vt 0.392696 0.998830
vt 0.104792 0.049224
vt 0.183873 0.033736
vt 0.192125 0.050185
vt 0.124722 0.019585
vt 0.172676 0.020113
vt 0.141899 0.004982
vt 0.157428 0.005153
vt 0.151351 0.001128
vt 0.148959 0.000000
vt 0.149702 0.000008
vt 0.523565 0.691039
vt 0.490853 0.672949
vt 0.523566 0.672951
vt 0.556400 0.272623
vt 0.589174 0.279384
vt 0.556532 0.279908
vt 0.523558 0.734566
vt 0.490845 0.728768
vt 0.523559 0.728771
vt 0.556307 0.234511
vt 0.588922 0.251007
vt 0.556280 0.251530
vt 0.556567 0.281900
vt 0.589245 0.281986
vt 0.556604 0.282510
vt 0.490849 0.708260
vt 0.490851 0.691037
vt 0.589208 0.281377
vt 0.523557 0.736275
vt 0.490844 0.734563
vt 0.589042 0.272100
vt 0.523563 0.708262
vt 0.556604 0.218255
vt 0.588948 0.233988
vt 0.228739 0.545116
vt 0.228546 0.548030
vt 0.212289 0.545767
vt 0.311219 0.545116
vt 0.327260 0.545767
vt 0.311026 0.548030
vt 0.535716 0.399429
vt 0.634988 0.426261
vt 0.631722 0.431621
vt 0.755554 0.602374
vt 0.656281 0.629206
vt 0.752288 0.597014
vt 0.228763 0.517188
vt 0.481345 0.432798
vt 0.601911 0.595836
vt 0.439030 0.497986
vt 0.447012 0.499059
vt 0.439013 0.500105
vt 0.470610 0.432014
vt 0.476578 0.427895
vt 0.476209 0.430840
vt 0.619212 0.474237
vt 0.615282 0.478859
vt 0.615136 0.475818
vt 0.597144 0.600740
vt 0.591176 0.596621
vt 0.596775 0.597795
vt 0.735848 0.549776
vt 0.739778 0.554399
vt 0.735702 0.552817
vt 0.551658 0.907755
vt 0.525913 0.903657
vt 0.549382 0.903659
vt 0.319269 0.460099
vt 0.327269 0.497212
vt 0.319269 0.497148
vt 0.470521 0.432083
vt 0.377329 0.502144
vt 0.373532 0.500632
vt 0.497894 0.526491
vt 0.591087 0.596552
vt 0.494098 0.528003
vt 0.319022 0.497180
vt 0.228535 0.499278
vt 0.220536 0.497180
vt 0.212289 0.497212
vt 0.220289 0.460099
vt 0.220289 0.497148
vt 0.611121 0.478007
vt 0.668962 0.496329
vt 0.569982 0.532781
vt 0.570229 0.496296
vt 0.730097 0.554331
vt 0.594927 0.595071
vt 0.638382 0.478831
vt 0.474362 0.433564
vt 0.534267 0.392488
vt 0.327269 0.522596
vt 0.403197 0.501078
vt 0.403197 0.522596
vt 0.316502 0.498332
vt 0.311022 0.499278
vt 0.228535 0.517188
vt 0.074484 0.953110
vt 0.072939 0.950651
vt 0.075263 0.950689
vt 0.526630 0.785594
vt 0.523567 0.783872
vt 0.525843 0.782710
vt 0.696394 0.490802
vt 0.696394 0.495201
vt 0.668962 0.494674
vt 0.466444 0.464585
vt 0.439013 0.460485
vt 0.466444 0.460099
vt 0.526561 0.464585
vt 0.526561 0.460099
vt 0.553992 0.460485
vt 0.756511 0.490802
vt 0.562003 0.461255
vt 0.553992 0.495906
vt 0.553992 0.460195
vt 0.545984 0.499157
vt 0.554041 0.530308
vt 0.526553 0.530753
vt 0.668963 0.495810
vt 0.660975 0.461172
vt 0.668963 0.460099
vt 0.517817 0.549804
vt 0.246610 0.474066
vt 0.532034 0.671480
vt 0.635500 0.601276
vt 0.641580 0.496246
vt 0.756066 0.427359
vt 0.556280 0.351460
vt 0.323417 0.221390
vt 0.334133 0.221304
vt 0.323473 0.222343
vt 0.402869 0.220537
vt 0.410746 0.220416
vt 0.410802 0.221369
vt 0.090537 0.778715
vt 0.077978 0.778607
vt 0.078032 0.777657
vt 0.165312 0.779568
vt 0.157432 0.779450
vt 0.165366 0.778618
vt 0.009245 0.784456
vt 0.009312 0.782872
vt 0.010184 0.783557
vt 0.580810 0.145366
vt 0.588994 0.148427
vt 0.588073 0.148842
vt 0.580803 0.077526
vt 0.588906 0.071490
vt 0.580244 0.078823
vt 0.273713 0.490446
vt 0.261239 0.494158
vt 0.271792 0.489030
vt 0.569982 0.503815
vt 0.568478 0.496296
vt 0.569920 0.497151
vt 0.564087 0.144081
vt 0.580172 0.144147
vt 0.564936 0.078282
vt 0.564505 0.076951
vt 0.482439 0.211193
vt 0.482903 0.211939
vt 0.255748 0.216420
vt 0.556280 0.154159
vt 0.557271 0.207464
vt 0.556280 0.217731
vt 0.439013 0.463705
vt 0.435777 0.497378
vt 0.435777 0.463488
vt 0.532019 0.671444
vt 0.153776 0.539578
vt 0.523557 0.000851
vt 0.491764 0.000000
vt 0.777471 0.498590
vt 0.668962 0.530518
vt 0.690072 0.495218
vt 0.556280 0.596842
vt 0.524487 0.597596
vt 0.523567 -0.000000
vt 0.327269 0.463488
vt 0.410241 0.460099
vt 0.652585 0.357191
vt 0.652600 0.357155
vt 0.272565 0.489636
vt 0.556280 0.321859
vt 0.556324 0.333251
vt 0.556280 0.333283
vt 0.153664 0.539579
vt 0.222044 0.475315
vt 0.699975 0.460099
vt 0.640310 0.612126
vt 0.547612 0.674902
vt 0.556280 0.342364
vt 0.556311 0.333283
vt 0.556311 0.342373
vt 0.523476 0.497986
vt 0.469529 0.497986
vt 0.556369 0.320967
vt 0.556947 0.321859
vt 0.342610 0.553319
vt 0.366881 0.556186
vt 0.274100 0.489100
vt 0.556311 0.351460
vt 0.556280 0.342382
vt 0.556311 0.342373
vt 0.760876 0.416509
vt 0.668178 0.353733
vt 0.395157 0.999904
vt 0.112664 0.032953
vt 0.147241 0.001083
vt 0.490844 0.736272
vt 0.589245 0.217731
vt 0.654833 0.636147
vt 0.311243 0.517188
vt 0.609531 0.474304
vt 0.523637 0.907752
vt 0.327269 0.460248
vt 0.212289 0.460248
vt 0.668715 0.496296
vt 0.668962 0.532781
vt 0.569982 0.496329
vt 0.731687 0.550628
vt 0.327269 0.501078
vt 0.640310 0.433656
vt 0.327269 0.498514
vt 0.311022 0.517188
vt 0.077580 0.953176
vt 0.072936 0.950724
vt 0.525913 0.782769
vt 0.523567 0.787419
vt 0.760876 0.594979
vt 0.783942 0.495201
vt 0.581468 0.496297
vt 0.553999 0.498099
vt 0.439013 0.530666
vt 0.489827 0.528736
vt 0.588049 0.071405
vt 0.260912 0.495676
vt 0.568478 0.504260
vt 0.563209 0.145381
vt 0.255113 0.217130
vt 0.557252 0.153147
vt 0.439013 0.501078
vt 0.389629 0.631679
vt 0.275988 0.590984
vt 0.522637 0.000002
vt 0.490844 0.000848
vt 0.751935 0.495201
vt 0.777471 0.530518
vt 0.668962 0.497982
vt 0.556280 -0.000000
vt 0.555360 0.597596
vt 0.523566 0.596842
vt 0.327269 0.497378
vt 0.352805 0.460099
vt 0.399602 0.436559
vt 0.510195 0.396956
vt 0.140274 0.532924
vt 0.756509 0.460132
vt 0.556935 0.315224
s 0
usemtl Material.001
f 28/46/14 29/47/14 30/48/14
f 32/49/15 33/50/15 34/51/15
f 25/52/16 28/53/16 30/54/16
f 32/55/17 36/56/17 33/57/17
f 34/51/18 28/46/18 32/49/18
f 26/58/19 32/49/19 28/46/19
f 30/54/1 27/59/1 25/52/1
f 37/60/2 33/57/2 36/56/2
f 43/61/20 44/62/20 45/63/20
f 48/64/21 49/65/21 50/66/21
f 53/67/22 54/68/22 55/69/22
f 58/70/23 59/71/23 60/72/23
f 63/73/24 64/74/24 65/75/24
f 48/76/25 58/77/25 49/78/25
f 42/79/26 57/80/26 56/81/26
f 52/82/27 40/83/27 39/84/27
f 43/85/28 61/86/28 44/87/28
f 54/88/29 64/89/29 63/90/29
f 66/91/30 46/92/30 67/93/30
f 57/94/1 40/83/1 27/59/1
f 52/95/31 44/96/31 59/97/31
f 56/81/32 63/90/32 46/92/32
f 38/98/2 62/99/2 47/100/2
f 50/66/33 51/101/33 52/82/33
f 27/59/34 49/65/34 26/102/34
f 49/103/35 35/104/35 26/105/35
f 30/54/36 53/67/36 55/69/36
f 55/106/37 56/81/37 57/80/37
f 53/107/38 34/108/38 64/89/38
f 58/70/39 37/60/39 36/56/39
f 60/109/40 61/110/40 62/111/40
f 65/112/41 66/113/41 67/114/41
f 64/74/42 33/57/42 38/98/42
f 68/115/43 69/116/43 70/117/43
f 71/118/44 72/119/44 73/120/44
f 78/121/45 79/122/45 80/123/45
f 71/118/46 79/122/46 78/121/46
f 76/124/47 69/116/47 68/115/47
f 84/125/48 72/126/48 85/127/48
f 83/128/49 70/129/49 69/130/49
f 80/131/50 87/132/50 86/133/50
f 41/134/1 70/135/1 82/83/1
f 75/136/1 70/135/1 72/137/1
f 39/128/51 69/130/51 44/62/51
f 42/125/52 87/132/52 79/138/52
f 86/100/2 43/85/2 80/139/2
f 39/140/53 82/140/53 83/140/53
f 41/140/53 84/140/53 85/140/53
f 46/140/53 86/140/53 87/140/53
f 88/141/54 89/142/54 90/143/54
f 91/144/55 92/145/55 93/146/55
f 94/147/56 95/148/56 96/149/56
f 97/150/57 98/151/57 99/152/57
f 108/153/2 109/154/2 110/155/2
f 100/156/58 103/157/58 102/158/58
f 104/159/59 107/160/59 105/161/59
f 108/162/60 112/163/60 109/164/60
f 115/165/61 118/166/61 117/167/61
f 100/156/62 111/168/62 101/169/62
f 104/159/63 116/170/63 115/171/63
f 92/145/64 107/172/64 106/173/64
f 88/141/65 103/174/65 89/142/65
f 114/175/66 95/176/66 94/177/66
f 118/178/67 97/179/67 117/180/67
f 75/136/2 107/181/2 103/182/2
f 102/185/69 95/186/69 112/187/69
f 106/191/71 115/192/71 97/179/71
f 118/193/1 81/194/1 114/195/1
f 101/196/72 74/197/72 103/198/72
f 74/199/73 68/200/73 70/135/73
f 101/201/74 76/124/74 68/115/74
f 75/136/75 71/202/75 105/203/75
f 75/204/76 105/205/76 107/206/76
f 71/118/77 116/207/77 105/208/77
f 109/196/78 113/209/78 114/210/78
f 76/211/79 108/162/79 77/212/79
f 77/212/2 110/213/2 81/194/2
f 116/214/80 81/215/80 118/216/80
f 78/217/81 81/194/81 116/218/81
f 25/52/16 26/102/16 28/53/16
f 32/55/17 35/224/17 36/56/17
f 34/51/18 29/47/18 28/46/18
f 26/58/19 35/225/19 32/49/19
f 30/54/1 31/226/1 27/59/1
f 37/60/2 38/98/2 33/57/2
f 48/76/25 59/227/25 58/77/25
f 42/79/26 41/228/26 57/80/26
f 52/82/27 51/101/27 40/83/27
f 43/85/28 62/99/28 61/86/28
f 54/88/29 53/107/29 64/89/29
f 66/91/30 47/229/30 46/92/30
f 27/59/1 31/226/1 57/94/1
f 57/94/1 41/134/1 40/83/1
f 40/83/1 51/101/1 27/59/1
f 59/97/31 48/230/31 52/95/31
f 52/95/31 39/231/31 44/96/31
f 44/96/31 61/232/31 59/97/31
f 46/92/32 42/79/32 56/81/32
f 56/81/82 54/88/82 63/90/82
f 63/90/32 67/93/32 46/92/32
f 47/100/2 66/233/2 38/98/2
f 38/98/2 37/60/2 62/99/2
f 62/99/2 43/85/2 47/100/2
f 52/82/83 48/64/83 50/66/83
f 50/66/84 27/59/84 51/101/84
f 26/102/34 25/52/34 27/59/34
f 27/59/34 50/66/34 49/65/34
f 49/103/35 58/234/35 35/104/35
f 55/69/36 31/226/36 30/54/36
f 30/54/36 29/235/36 53/67/36
f 57/80/37 31/236/37 55/106/37
f 55/106/37 54/88/37 56/81/37
f 53/107/38 29/237/38 34/108/38
f 36/56/39 35/224/39 58/70/39
f 58/70/39 60/72/39 37/60/39
f 62/111/85 37/238/85 60/109/85
f 60/109/86 59/239/86 61/110/86
f 67/114/87 63/240/87 65/112/87
f 65/112/41 38/241/41 66/113/41
f 38/98/42 65/75/42 64/74/42
f 64/74/42 34/242/42 33/57/42
f 71/118/46 73/120/46 79/122/46
f 76/124/88 77/243/88 69/116/88
f 84/125/89 73/244/89 72/126/89
f 83/128/90 82/245/90 70/129/90
f 80/131/91 79/138/91 87/132/91
f 41/134/53 85/134/53 72/137/53
f 41/134/1 72/137/1 70/135/1
f 82/83/53 40/83/53 41/134/53
f 75/136/1 74/199/1 70/135/1
f 69/130/51 77/246/51 45/63/51
f 69/130/51 45/63/51 44/62/51
f 39/128/53 83/128/53 69/130/53
f 73/244/53 84/125/53 42/125/53
f 79/138/52 73/244/52 42/125/52
f 42/125/53 46/132/53 87/132/53
f 43/85/2 45/247/2 77/212/2
f 43/85/2 77/212/2 80/139/2
f 86/100/53 47/100/53 43/85/53
f 39/140/53 40/140/53 82/140/53
f 41/140/53 42/140/53 84/140/53
f 46/140/53 47/140/53 86/140/53
f 100/156/92 101/169/92 103/157/92
f 104/159/93 106/248/93 107/160/93
f 108/162/94 111/249/94 112/163/94
f 115/165/95 116/250/95 118/166/95
f 100/156/96 112/251/96 111/168/96
f 104/159/63 105/161/63 116/170/63
f 92/145/97 91/144/97 107/172/97
f 88/141/98 102/252/98 103/174/98
f 114/175/99 113/253/99 95/176/99
f 118/178/100 98/254/100 97/179/100
f 107/181/1 91/255/1 89/256/1
f 107/181/1 89/256/1 103/182/1
f 103/182/2 74/199/2 75/136/2
f 112/187/69 100/259/69 102/185/69
f 102/185/69 88/260/69 95/186/69
f 95/186/69 113/261/69 112/187/69
f 97/179/71 92/265/71 106/191/71
f 106/191/71 104/266/71 115/192/71
f 115/192/71 117/180/71 97/179/71
f 81/194/2 110/213/2 109/164/2
f 114/195/2 94/267/2 98/268/2
f 114/195/2 98/268/2 118/193/2
f 81/194/1 109/164/1 114/195/1
f 74/199/101 101/269/101 68/200/101
f 101/201/74 111/270/74 76/124/74
f 75/136/102 72/137/102 71/202/102
f 71/118/77 78/121/77 116/207/77
f 109/196/103 112/271/103 113/209/103
f 76/211/104 111/249/104 108/162/104
f 81/194/2 80/139/2 77/212/2
f 77/212/2 108/162/2 110/213/2
f 78/217/105 80/139/105 81/194/105
usemtl Material.002
f 4/1/1 1/2/1 2/3/1
f 4/1/1 5/4/1 3/5/1
f 6/6/1 7/7/1 5/4/1
f 10/8/1 7/7/1 8/9/1
f 10/8/1 11/10/1 9/11/1
f 13/12/2 16/13/2 14/14/2
f 16/13/2 17/15/2 18/16/2
f 18/16/2 19/17/2 20/18/2
f 19/17/2 22/19/2 20/18/2
f 22/19/2 23/20/2 24/21/2
f 3/22/3 13/23/3 1/24/3
f 8/25/4 22/26/4 10/27/4
f 9/28/5 19/29/5 7/30/5
f 4/31/6 18/32/6 6/33/6
f 12/34/7 23/35/7 11/36/7
f 3/22/8 17/37/8 15/38/8
f 10/27/9 24/39/9 12/34/9
f 11/40/10 21/41/10 9/28/10
f 8/25/11 18/32/11 20/42/11
f 7/30/12 17/37/12 5/43/12
f 2/44/13 16/45/13 4/31/13
f 93/146/1 1/2/1 89/142/1
f 90/183/68 13/23/68 95/184/68
f 93/188/70 97/189/70 14/190/70
f 98/151/2 96/149/2 14/14/2
f 4/1/1 3/5/1 1/2/1
f 4/1/1 6/6/1 5/4/1
f 6/6/1 8/9/1 7/7/1
f 10/8/1 9/11/1 7/7/1
f 10/8/1 12/219/1 11/10/1
f 13/12/2 15/220/2 16/13/2
f 16/13/2 15/220/2 17/15/2
f 18/16/2 17/15/2 19/17/2
f 19/17/2 21/221/2 22/19/2
f 22/19/2 21/221/2 23/20/2
f 3/22/3 15/38/3 13/23/3
f 8/25/4 20/42/4 22/26/4
f 9/28/5 21/41/5 19/29/5
f 4/31/6 16/45/6 18/32/6
f 12/34/7 24/39/7 23/35/7
f 3/22/8 5/43/8 17/37/8
f 10/27/9 22/26/9 24/39/9
f 11/40/10 23/222/10 21/41/10
f 8/25/11 6/33/11 18/32/11
f 7/30/12 19/29/12 17/37/12
f 2/44/13 14/223/13 16/45/13
f 89/142/1 91/144/1 93/146/1
f 93/146/1 2/3/1 1/2/1
f 1/2/1 90/143/1 89/142/1
f 95/184/68 88/257/68 90/183/68
f 90/183/68 1/24/68 13/23/68
f 13/23/68 96/258/68 95/184/68
f 14/190/70 2/262/70 93/188/70
f 93/188/70 92/263/70 97/189/70
f 97/189/70 99/264/70 14/190/70
f 14/14/2 99/152/2 98/151/2
f 98/151/2 94/147/2 96/149/2
f 96/149/2 13/12/2 14/14/2
